<?xml version="1.0" encoding="UTF-8" standalone="no"?>
<svg
   width="47"
   height="46"
   viewBox="0 0 47 46"
   fill="none"
   version="1.1"
   id="svg4"
   xmlns="http://www.w3.org/2000/svg"
   xmlns:svg="http://www.w3.org/2000/svg">
  <defs
     id="defs4" />
  <path
     d="m 22.7444,0.158226 c 5.2695,0.003288 10.3758,1.827974 14.4541,5.164954 4.0782,3.33699 6.8775,7.98112 7.9238,13.14562 1.0463,5.1646 0.2751,10.532 -2.1827,15.1932 -2.4579,4.6611 -6.4515,8.3293 -11.3042,10.3832 -5.5623,2.257 -11.7895,2.2342 -17.3352,-0.0635 C 8.75449,41.684 4.33586,37.2961 1.99959,31.7665 -0.336675,26.237 -0.402871,20.0101 1.81531,14.4321 4.0335,8.85418 8.35784,4.37329 13.8534,1.95823 16.6658,0.766135 19.6898,0.153913 22.7444,0.158226 Z m 0,42.682974 c 4.5774,-0.0031 9.013,-1.5883 12.5555,-4.4872 3.5425,-2.8988 5.9741,-6.933 6.8829,-11.4193 C 43.0916,22.4485 42.4217,17.786 40.2867,13.737 38.1517,9.68805 34.6827,6.50154 30.4674,4.71723 25.6259,2.70912 20.1866,2.69771 15.3368,4.68549 10.4869,6.67327 6.62022,10.4988 4.58073,15.3272 2.54123,20.1556 2.49452,25.5947 4.45078,30.4573 6.40703,35.32 10.2074,39.2114 15.0224,41.2822 c 2.443,1.0339 5.0694,1.5641 7.722,1.559 z"
     fill="#cccccc"
     id="path1" />
  <path
     d="m 13.515763,27.999331 c -0.309842,0 -0.613457,0.09406 -0.877035,0.271856 -0.263578,0.177675 -0.476553,0.432054 -0.615127,0.734372 -0.138461,0.302438 -0.197182,0.640922 -0.169379,0.977707 0.02791,0.336662 0.14102,0.658278 0.32697,0.928798 1.305768,1.781135 2.950294,3.231797 4.819919,4.251738 1.869514,1.020063 3.91975,1.585133 6.009024,1.656253 2.089272,-0.07111 4.139398,-0.63619 6.009023,-1.656253 1.869625,-1.019941 3.514151,-2.470603 4.819918,-4.251738 0,0 1.420208,-1.850799 0,-2.912733 -1.420206,-1.061934 -2.669144,0.728183 -2.669144,0.728183 -0.655497,0.867752 -1.414868,1.635622 -2.257651,2.282855 -1.707142,1.390343 -3.775395,2.152023 -5.905483,2.174839 -1.571459,-0.06979 -3.111334,-0.503297 -4.517528,-1.271772 -1.406193,-0.768596 -2.646567,-1.85456 -3.638934,-3.185922 -0.155366,-0.2261 -0.356887,-0.409602 -0.588546,-0.536063 -0.231659,-0.126342 -0.487008,-0.19212 -0.746027,-0.19212 z"
     fill="#cccccc"
     id="path2"
     style="stroke-width:1.16178" />
  <path
     d="m 15.589839,18.938042 c 1.1046,0 2,-1.567 2,-3.5 0,-1.933 -0.8954,-3.5 -2,-3.5 -1.1045,0 -2,1.567 -2,3.5 0,1.933 0.8955,3.5 2,3.5 z"
     fill="#cccccc"
     id="path4-9" />
  <path
     d="m 29.213136,18.767039 c 1.1046,0 2,-1.567 2,-3.5 0,-1.933 -0.8954,-3.5 -2,-3.5 -1.1045,0 -2,1.567 -2,3.5 0,1.933 0.8955,3.5 2,3.5 z"
     fill="#cccccc"
     id="path5" />
  <path
     d="M 32.613313,27.660171 H 13.715464 c -1.043791,0 -1.889784,0.718672 -1.889784,1.605134 0,0.886462 0.845993,1.605135 1.889784,1.605135 h 18.897849 c 1.043665,0 1.889784,-0.718673 1.889784,-1.605135 0,-0.886462 -0.846119,-1.605134 -1.889784,-1.605134 z"
     fill="#cccccc"
     id="path2-8"
     style="stroke-width:1.1611" />
</svg>
