<svg width="47" height="46" viewBox="0 0 47 46" fill="none" xmlns="http://www.w3.org/2000/svg">
<path d="M23.1146 0.158226C28.384 0.161514 33.4904 1.9862 37.5686 5.32318C41.6468 8.66017 44.4461 13.3043 45.4924 18.4688C46.5387 23.6334 45.7676 29.0008 43.3097 33.662C40.8518 38.3231 36.8583 41.9913 32.0056 44.0452C26.4432 46.3022 20.216 46.2794 14.6703 43.9817C9.1246 41.684 4.70598 37.2961 2.36971 31.7665C0.0334424 26.237 -0.0327543 20.0101 2.18543 14.4321C4.40362 8.85418 8.72796 4.37329 14.2236 1.95823C17.0359 0.766135 20.06 0.153913 23.1146 0.158226ZM23.1146 42.8412C27.6919 42.8381 32.1275 41.2529 35.67 38.354C39.2125 35.4552 41.6441 31.421 42.5529 26.9347C43.4617 22.4485 42.7918 17.786 40.6568 13.737C38.5218 9.68805 35.0528 6.50154 30.8376 4.71723C25.9961 2.70912 20.5568 2.69771 15.7069 4.68549C10.857 6.67327 6.99034 10.4988 4.95084 15.3272C2.91135 20.1556 2.86463 25.5947 4.82089 30.4573C6.77715 35.32 10.5775 39.2114 15.3926 41.2822C17.8355 42.3161 20.4619 42.8463 23.1146 42.8412Z" fill="#CCCCCC"/>
<path d="M30.6055 30H15.6055C14.777 30 14.1055 30.6716 14.1055 31.5C14.1055 32.3284 14.777 33 15.6055 33H30.6055C31.4339 33 32.1055 32.3284 32.1055 31.5C32.1055 30.6716 31.4339 30 30.6055 30Z" fill="#CCCCCC"/>
<path d="M17.6055 21.999C18.71 21.999 19.6055 20.432 19.6055 18.499C19.6055 16.566 18.71 14.999 17.6055 14.999C16.5009 14.999 15.6055 16.566 15.6055 18.499C15.6055 20.432 16.5009 21.999 17.6055 21.999Z" fill="#CCCCCC"/>
<path d="M28.6055 21.999C29.71 21.999 30.6055 20.432 30.6055 18.499C30.6055 16.566 29.71 14.999 28.6055 14.999C27.5009 14.999 26.6055 16.566 26.6055 18.499C26.6055 20.432 27.5009 21.999 28.6055 21.999Z" fill="#CCCCCC"/>
</svg>
