<svg width="48" height="46" viewBox="0 0 48 46" fill="none" xmlns="http://www.w3.org/2000/svg">
<path d="M24.2737 0.158226C29.5432 0.161514 34.6495 1.9862 38.7278 5.32318C42.806 8.66017 45.6053 13.3043 46.6516 18.4688C47.6979 23.6334 46.9267 29.0008 44.4689 33.662C42.011 38.3231 38.0174 41.9913 33.1647 44.0452C27.6024 46.3022 21.3752 46.2794 15.8295 43.9817C10.2838 41.684 5.86516 37.2961 3.52889 31.7665C1.19262 26.237 1.12643 20.0101 3.34461 14.4321C5.5628 8.85418 9.88714 4.37329 15.3827 1.95823C18.1951 0.766135 21.2191 0.153913 24.2737 0.158226ZM24.2737 42.8412C28.8511 42.8381 33.2867 41.2529 36.8292 38.354C40.3717 35.4552 42.8032 31.421 43.7121 26.9347C44.6209 22.4485 43.951 17.786 41.816 13.737C39.681 9.68805 36.212 6.50154 31.9967 4.71723C27.1552 2.70912 21.7159 2.69771 16.8661 4.68549C12.0162 6.67327 8.14952 10.4988 6.11002 15.3272C4.07053 20.1556 4.02381 25.5947 5.98007 30.4573C7.93633 35.32 11.7367 39.2114 16.5517 41.2822C18.9946 42.3161 21.6211 42.8463 24.2737 42.8412Z" fill="#CCCCCC"/>
<path d="M15.7373 34.0346C15.4587 34.0346 15.1857 33.957 14.9487 33.8106C14.7117 33.6641 14.5202 33.4546 14.3957 33.2054C14.2711 32.9563 14.2183 32.6773 14.2434 32.3999C14.2684 32.1225 14.3702 31.8575 14.5373 31.6346C15.7114 30.167 17.1901 28.9717 18.8712 28.1312C20.5523 27.2908 22.3957 26.8252 24.2743 26.7666C26.1529 26.8252 27.9963 27.2908 29.6774 28.1312C31.3585 28.9717 32.8372 30.167 34.0113 31.6346C34.0113 31.6346 35.2883 33.1596 34.0113 34.0346C32.7343 34.9096 31.6113 33.4346 31.6113 33.4346C31.0219 32.7195 30.3392 32.0869 29.5813 31.5536C28.0463 30.4079 26.1866 29.7803 24.2713 29.7616C22.8584 29.8191 21.4738 30.1762 20.2093 30.8095C18.9449 31.4427 17.8296 32.3375 16.9373 33.4346C16.7976 33.6209 16.6164 33.7721 16.4081 33.8762C16.1998 33.9804 15.9702 34.0346 15.7373 34.0346Z" fill="#CCCCCC"/>
<path d="M18.9326 21.999C20.0372 21.999 20.9326 20.432 20.9326 18.499C20.9326 16.566 20.0372 14.999 18.9326 14.999C17.828 14.999 16.9326 16.566 16.9326 18.499C16.9326 20.432 17.828 21.999 18.9326 21.999Z" fill="#CCCCCC"/>
<path d="M29.9326 21.999C31.0372 21.999 31.9326 20.432 31.9326 18.499C31.9326 16.566 31.0372 14.999 29.9326 14.999C28.828 14.999 27.9326 16.566 27.9326 18.499C27.9326 20.432 28.828 21.999 29.9326 21.999Z" fill="#CCCCCC"/>
</svg>
