<?xml version="1.0" encoding="UTF-8" standalone="no"?>
<svg
   width="47"
   height="46"
   viewBox="0 0 47 46"
   fill="none"
   version="1.1"
   id="svg4"
   sodipodi:docname="cu-smiley-very-good.svg"
   inkscape:version="1.4.2 (f4327f4, 2025-05-13)"
   xmlns:inkscape="http://www.inkscape.org/namespaces/inkscape"
   xmlns:sodipodi="http://sodipodi.sourceforge.net/DTD/sodipodi-0.dtd"
   xmlns="http://www.w3.org/2000/svg"
   xmlns:svg="http://www.w3.org/2000/svg">
  <defs
     id="defs4" />
  <sodipodi:namedview
     id="namedview4"
     pagecolor="#ffffff"
     bordercolor="#000000"
     borderopacity="0.25"
     inkscape:showpageshadow="2"
     inkscape:pageopacity="0.0"
     inkscape:pagecheckerboard="0"
     inkscape:deskcolor="#d1d1d1"
     inkscape:zoom="17.543478"
     inkscape:cx="23.484511"
     inkscape:cy="23"
     inkscape:window-width="1920"
     inkscape:window-height="1057"
     inkscape:window-x="1912"
     inkscape:window-y="49"
     inkscape:window-maximized="1"
     inkscape:current-layer="svg4" />
  <path
     d="M22.7444 0.158226C28.0139 0.161514 33.1202 1.9862 37.1985 5.32318C41.2767 8.66017 44.076 13.3043 45.1223 18.4688C46.1686 23.6334 45.3974 29.0008 42.9396 33.662C40.4817 38.3231 36.4881 41.9913 31.6354 44.0452C26.0731 46.3022 19.8459 46.2794 14.3002 43.9817C8.75449 41.684 4.33586 37.2961 1.99959 31.7665C-0.336675 26.237 -0.402871 20.0101 1.81531 14.4321C4.0335 8.85418 8.35784 4.37329 13.8534 1.95823C16.6658 0.766135 19.6898 0.153913 22.7444 0.158226ZM22.7444 42.8412C27.3218 42.8381 31.7574 41.2529 35.2999 38.354C38.8424 35.4552 41.274 31.421 42.1828 26.9347C43.0916 22.4485 42.4217 17.786 40.2867 13.737C38.1517 9.68805 34.6827 6.50154 30.4674 4.71723C25.6259 2.70912 20.1866 2.69771 15.3368 4.68549C10.4869 6.67327 6.62022 10.4988 4.58073 15.3272C2.54123 20.1556 2.49452 25.5947 4.45078 30.4573C6.40703 35.32 10.2074 39.2114 15.0224 41.2822C17.4654 42.3161 20.0918 42.8463 22.7444 42.8412Z"
     fill="#CCCCCC"
     id="path1" />
  <path
     d="M14.209 27.044C13.9304 27.044 13.6574 27.1215 13.4204 27.268C13.1834 27.4144 12.9919 27.624 12.8673 27.8731C12.7428 28.1223 12.69 28.4012 12.715 28.6787C12.7401 28.9561 12.8418 29.2211 13.009 29.444C14.1831 30.9116 15.6618 32.1069 17.3429 32.9473C19.0239 33.7878 20.8674 34.2534 22.746 34.312C24.6246 34.2534 26.468 33.7878 28.1491 32.9473C29.8302 32.1069 31.3089 30.9116 32.483 29.444C32.483 29.444 33.76 27.919 32.483 27.044C31.206 26.169 30.083 27.644 30.083 27.644C29.4936 28.359 28.8108 28.9917 28.053 29.525C26.518 30.6706 24.6583 31.2982 22.743 31.317C21.33 31.2595 19.9454 30.9023 18.681 30.2691C17.4166 29.6358 16.3013 28.741 15.409 27.644C15.2693 27.4577 15.0881 27.3065 14.8798 27.2023C14.6715 27.0982 14.4419 27.044 14.209 27.044Z"
     fill="#CCCCCC"
     id="path2" />
  <path
     d="m 17.4033,16.298876 c 1.1046,0 2,3.278105 2,1.345105 0,-1.933 -0.8954,-2.644981 -2,-2.644981 -1.1045,0 -2,0.882985 -2,2.815985 0,1.933 0.8955,-1.516109 2,-1.516109 z"
     fill="#cccccc"
     id="path3"
     sodipodi:nodetypes="sssss" />
  <path
     d="m 28.4033,16.070871 c 1.1046,0 2,3.563112 2,1.630112 0,-1.933 -0.8954,-2.701983 -2,-2.701983 -1.1045,0 -2,0.768983 -2,2.701983 0,1.933 0.8955,-1.630112 2,-1.630112 z"
     fill="#cccccc"
     id="path4"
     sodipodi:nodetypes="sssss" />
</svg>
