<svg width="16" height="11" viewBox="0 0 16 11" fill="none" xmlns="http://www.w3.org/2000/svg">
<path d="M7.375 10.0974L0.254 2.97644C0.172242 2.8948 0.10738 2.79784 0.0631264 2.69111C0.0188723 2.58438 -0.00390625 2.46998 -0.00390625 2.35444C-0.00390625 2.2389 0.0188723 2.12449 0.0631264 2.01776C0.10738 1.91103 0.172242 1.81408 0.254 1.73244L1.085 0.901438C1.2498 0.736928 1.47314 0.644531 1.706 0.644531C1.93886 0.644531 2.1622 0.736928 2.327 0.901438L7.999 6.54444L13.669 0.901438C13.8338 0.736928 14.0571 0.644531 14.29 0.644531C14.5229 0.644531 14.7462 0.736928 14.911 0.901438L15.742 1.73244C15.8238 1.81408 15.8886 1.91103 15.9329 2.01776C15.9771 2.12449 15.9999 2.2389 15.9999 2.35444C15.9999 2.46998 15.9771 2.58438 15.9329 2.69111C15.8886 2.79784 15.8238 2.8948 15.742 2.97644L8.619 10.0974C8.53736 10.1792 8.4404 10.2441 8.33367 10.2883C8.22695 10.3326 8.11254 10.3553 7.997 10.3553C7.88146 10.3553 7.76705 10.3326 7.66033 10.2883C7.5536 10.2441 7.45664 10.1792 7.375 10.0974Z" fill="#FB8521"/>
</svg>
